<?xml version="1.0" ?><!DOCTYPE svg  PUBLIC '-//W3C//DTD SVG 1.1//EN'  'http://www.w3.org/Graphics/SVG/1.1/DTD/svg11.dtd'><svg height="512px" style="enable-background:new 0 0 512 512;" version="1.1" viewBox="0 0 512 512" width="512px" xml:space="preserve" xmlns="http://www.w3.org/2000/svg" xmlns:xlink="http://www.w3.org/1999/xlink"><g id="_x31_72"><g><g><g><g><g><g><path d="M398.772,103.783c-0.058,0.392,0.701,0.25,0.84,0.311         C399.429,103.403,398.575,103.812,398.772,103.783z" style="fill:#202020;"/><path d="M395.653,98.327l0.324-0.05c-0.354-0.144-0.712-0.266-1.069-0.37c0,0,0.188,0.1,0.376,0.201         C395.469,98.218,395.653,98.327,395.653,98.327z" style="fill:#202020;"/><path d="M392.328,94.212c-0.212,0.663,0.156,0.907,0.639,1.161c0.475,0.251,1.076,0.525,1.18,1.042         l-0.141,0.301c0,0,0.272-0.074,0.545-0.148c0.274-0.065,0.55-0.13,0.55-0.13C394.261,95.518,392.722,94.973,392.328,94.212z" style="fill:#202020;"/><path d="M391.178,90.16c-0.035,0.556-0.852,0.043,0.641,0.516c-0.041-0.086-0.045-0.125-0.065-0.184         C391.626,90.433,391.456,90.343,391.178,90.16z" style="fill:#202020;"/><path d="M391.753,90.493C392.372,90.799,391.563,89.901,391.753,90.493L391.753,90.493z" style="fill:#202020;"/><path d="M388.749,89.543c0,0,0.246-0.045,0.495-0.077c0.252-0.032,0.505-0.064,0.505-0.064         c-0.073-0.346-0.85-0.675-0.489-0.783C388.251,88.577,388.393,88.933,388.749,89.543z" style="fill:#202020;"/><path d="M387.711,90.243c0,0,0.469-0.075,0.469-0.075C388.141,90.028,388.034,89.948,387.711,90.243z" style="fill:#202020;"/><path d="M389.198,90.063c0,0-0.256,0.021-0.513,0.041c-0.253,0.032-0.506,0.063-0.506,0.063         c0.065,0.237-0.052,0.641,0.453-0.021C388.448,90.493,388.726,90.188,389.198,90.063z" style="fill:#202020;"/><path d="M389.633,90.434c0.353,0.439,0.801,0.839-0.119,0.932c0.74,0.211,1.157,0.131,1.209-0.1         C390.774,91.039,390.434,90.649,389.633,90.434z" style="fill:#202020;"/><path d="M391.291,95.106c0,0,0.038,0.151,0.075,0.301c0.032,0.151,0.065,0.301,0.065,0.301         l0.606-0.049C391.745,95.677,391.525,94.764,391.291,95.106z" style="fill:#202020;"/><path d="M383.646,88.217c-0.036,0.276,0.196,0.737,0.24,1.09l0.431-0.317         C384.096,88.801,383.676,88.626,383.646,88.217z" style="fill:#202020;"/><path d="M383.887,89.307l-0.645,0.475C383.817,89.837,383.923,89.612,383.887,89.307z" style="fill:#202020;"/><path d="M387.239,91.614c-0.023-0.031,1.61-0.592,1.633-0.564c0,0-0.496,0.09-0.97,0.226         c-0.474,0.125-0.922,0.292-0.922,0.292L387.239,91.614z" style="fill:#202020;"/><polygon points="381.187,88.182 381.552,87.543 380.9,88.509        " style="fill:#202020;"/><path d="M379.554,88.294c0.271-0.53-0.37-0.897-0.085-1.223c-0.443,0.095-0.821,0.55-1.162,0.959         C378.669,87.802,379.055,87.861,379.554,88.294z" style="fill:#202020;"/><path d="M377.734,88.626c0.181-0.127,0.368-0.354,0.572-0.596         C378.114,88.152,377.925,88.329,377.734,88.626z" style="fill:#202020;"/><path d="M382.145,89.645c-0.05-0.167-0.146-0.604-0.507-0.789l0.253,0.777         C381.968,89.637,382.056,89.641,382.145,89.645z" style="fill:#202020;"/><path d="M381.899,89.658l-0.009-0.025c-0.274-0.021-0.466-0.037-0.547-0.043         C381.414,89.599,381.581,89.62,381.899,89.658z" style="fill:#202020;"/><path d="M382.209,89.648c-0.024-0.001-0.041-0.002-0.064-0.003         C382.169,89.722,382.184,89.747,382.209,89.648z" style="fill:#202020;"/><path d="M385.137,90.602c-0.263,0.201-0.672,0.42-0.834,0.671c-0.134,0.256-0.19,0.531,0.261,0.873         C384.918,91.624,384.354,91.224,385.137,90.602z" style="fill:#202020;"/><path d="M382.523,90.621l0.684,0.178c-0.013-0.205-0.137-0.504,0.051-0.721L382.523,90.621z" style="fill:#202020;"/><polygon points="382.188,90.867 382.523,90.621 382.27,90.555        " style="fill:#202020;"/><path d="M378.906,89.354c-0.296,0.338-0.619,0.367-0.984,0.422c0.392,0.153,0.797,0.234,1.181,0.233         C379.157,89.765,379.326,89.327,378.906,89.354z" style="fill:#202020;"/><path d="M380.361,89.57c-0.021,0.014-0.047,0.032-0.066,0.044         C380.336,89.681,380.368,89.702,380.361,89.57z" style="fill:#202020;"/><path d="M374.326,89.771c0.02,0.048,0.037,0.091,0.058,0.141c0.005-0.045,0.008-0.082,0.014-0.134         L374.326,89.771z" style="fill:#202020;"/><path d="M379.168,90.154c0.295,0.15,0.471-0.04,0.638-0.28c-0.22,0.079-0.453,0.129-0.703,0.135         C379.078,90.12,379.074,90.193,379.168,90.154z" style="fill:#202020;"/><path d="M376.73,88.99c0.153,0.163,0.327,0.3,0.51,0.427C377.091,89.172,376.785,88.788,376.73,88.99z         " style="fill:#202020;"/><path d="M380.196,89.4c0.015-0.013,0.028-0.027,0.044-0.035         C380.144,89.198,380.155,89.28,380.196,89.4z" style="fill:#202020;"/><path d="M380.196,89.4c-0.151,0.112-0.271,0.304-0.391,0.474c0.18-0.061,0.346-0.145,0.489-0.259         C380.259,89.56,380.223,89.476,380.196,89.4z" style="fill:#202020;"/><path d="M373.236,94.763c0.052-0.721,0.826-1.387,1.493-0.614c0.657-0.54,0.228-2.911-0.346-4.237         c-0.021,0.314-0.021,0.605-0.696,1.031c0.236,0.394,1.5,0.921,0.93,1.573c-0.896,0.371-0.734-0.255-1.17-0.636         c0.37,0.898-1.14,1.307-0.944,2.627l0.785-0.465C373.303,94.248,373.019,94.575,373.236,94.763z" style="fill:#202020;"/><path d="M375.672,89.985l0.278-0.089c-0.317-0.125-0.544-0.414-0.962-0.978         c-0.463,0.352-0.56,0.62-0.591,0.859l1.37,0.101L375.672,89.985z" style="fill:#202020;"/><path d="M377.2,89.893c-0.218,0.784-0.886,1.118-0.477,1.967c0.816-0.054,0.572-0.655,1.061-0.996         c-1.318,0.194,0.378-0.437-0.574-0.881c0.26-0.133,0.492-0.174,0.712-0.207c-0.237-0.096-0.466-0.214-0.682-0.359         c0.012,0.019,0.021,0.033,0.03,0.048l0.007-0.002l-0.002,0.012c0.057,0.098,0.076,0.157,0.012,0.101         c-0.005,0.01-0.021,0.014-0.027,0.016c-0.009,0.109-0.033,0.204-0.06,0.296c-0.382-0.162-0.061-0.204,0.06-0.296         c0.004-0.039,0.015-0.075,0.016-0.117l-0.005-0.01l-1.32,0.43C376.23,90.005,376.58,89.983,377.2,89.893z" style="fill:#202020;"/><path d="M383.824,93.827c-0.04-0.069-0.039-0.125-0.042-0.182         C383.697,93.741,383.665,93.807,383.824,93.827z" style="fill:#202020;"/><path d="M383.281,93.354c0.097-0.109,0.177-0.423,0.488-0.342c0.271,0.236-0.001,0.376,0.013,0.634         c0.188-0.208,0.658-0.563,0.068-0.944l-0.093,0.106c-0.531-0.269-1.215-1.248-1.122-1.355         C382.791,92.158,382.928,92.661,383.281,93.354z" style="fill:#202020;"/><path d="M380.203,91.824l-1.1,0.384l0.56,0.679l-0.028-0.408         C380.26,92.639,380.125,92.137,380.203,91.824z" style="fill:#202020;"/><polygon points="374.2,89.38 374.346,88.552 373.711,89.722        " style="fill:#202020;"/><polygon points="372.771,89.479 372.824,88.759 372.447,89.194        " style="fill:#202020;"/><path d="M227.836,334.191l-0.205-2.797C227.695,332.718,227.763,333.568,227.836,334.191z" style="fill:#202020;"/><path d="M227.787,354.439l0.355,0.496C227.946,353.997,227.802,353.612,227.787,354.439z" style="fill:#202020;"/><path d="M191.792,221.1c-0.673,4.074-1.715,8.625-0.906,8.133l0.79-1.25         C191.534,225.136,191.622,222.955,191.792,221.1z" style="fill:#202020;"/><path d="M119.239,374.717c-0.043-0.392-0.089-0.799-0.134-1.203c-0.544-0.859-1.035-1.689-1.472-2.44         C118.094,372.186,118.62,373.438,119.239,374.717z" style="fill:#202020;"/><path d="M123.252,376.237c0,0,0.331,1.226,0.731,2.437c0.39,1.214,0.849,2.41,0.849,2.41         C124.481,379.979,123.925,378.433,123.252,376.237z" style="fill:#202020;"/><path d="M226.999,223.607l-0.804-3.263C226.198,225.45,226.604,223.203,226.999,223.607z" style="fill:#202020;"/><path d="M250.715,89.771c-3.517-0.309-6.313-0.438-8.772-0.477         C246.179,89.747,249.596,90.428,250.715,89.771z" style="fill:#202020;"/><path d="M236.215,342.159c-0.143-1.712-0.304-2.443-0.479-2.393         C235.87,341.528,236.021,342.524,236.215,342.159z" style="fill:#202020;"/><path d="M231.791,89.297c0.62,0.079,1.228,0.119,1.858,0.186c2.57-0.132,5.155-0.239,8.294-0.188         C238.816,88.956,235.234,88.749,231.791,89.297z" style="fill:#202020;"/><path d="M389.843,121.512c0.036-0.034,0.053-0.074,0.095-0.105         C389.83,121.396,389.825,121.443,389.843,121.512z" style="fill:#202020;"/><path d="M397.811,108.017c0.049,0.133,0.05,0.35,0.061,0.554         C397.926,108.472,397.92,108.305,397.811,108.017z" style="fill:#202020;"/><path d="M327.629,89.135C330.253,89.083,328.045,89.047,327.629,89.135L327.629,89.135z" style="fill:#202020;"/><path d="M340.387,92.258c-0.558,0.088-0.981,0.202-1.047,0.384         C339.556,92.452,339.921,92.331,340.387,92.258z" style="fill:#202020;"/><path d="M205.668,94.235c-0.076,0.005-0.136,0.009-0.224,0.015         C206.222,94.35,206.086,94.34,205.668,94.235z" style="fill:#202020;"/><path d="M331.576,89.494c-0.984-0.097-2.12-0.178-3.354-0.235         C328.764,89.321,329.783,89.397,331.576,89.494z" style="fill:#202020;"/><path d="M331.045,89.121c0.904,0.03,1.616,0.054,2.293,0.077         C333.669,89.065,333.377,88.983,331.045,89.121z" style="fill:#202020;"/><path d="M323.975,89.177c1.5-0.012,2.9,0.025,4.247,0.082c-0.516-0.053-0.731-0.098-0.593-0.124         C326.859,89.144,325.774,89.157,323.975,89.177z" style="fill:#202020;"/><path d="M374.21,172.797c0.173,0.022,0.372,0.049,0.562,0.074         C377.418,172.544,376.257,172.596,374.21,172.797z" style="fill:#202020;"/><path d="M199.991,289.377c-0.008-0.123-0.029-0.188-0.038-0.3c-0.009,0.123-0.02,0.276-0.027,0.389         L199.991,289.377z" style="fill:#202020;"/><path d="M196.803,301.33c2.032-2.521,2.599-5.06,2.857-7.048c0.122-0.964,0.122-2.043,0.142-2.641         c0.025-0.704,0.072-1.416,0.124-2.176c0,0-0.569,0.778-1.139,1.558c-0.285,0.39-0.569,0.779-0.783,1.071         c-0.106,0.142-0.196,0.271-0.262,0.373c-0.064,0.095-0.102,0.149-0.102,0.149s0.186,0.435,0.371,1.158         c0.188,0.708,0.352,1.773,0.271,2.935c-0.071,1.146-0.379,2.343-0.753,3.204C197.167,300.783,196.803,301.33,196.803,301.33z         " style="fill:#202020;"/><path d="M227.608,285.709l-0.709,6.617c-1.167-7.987-0.765-13.766-1.763-7.552         c2.473,0.935,0.254,25.719,2.723,26.638l-0.52,4.363c0.024-1.251-0.121-1.451-0.097-2.686         c-1.184,8.482,1.788,6.302,1.435,17.231c-0.189,3.809-0.548,6.467-0.841,3.87l0.611,8.487         c-0.049,2.47-0.478,1.866-0.431-0.593l0.198,12.946l-0.073-0.097c0.095,0.453,0.211,1.09,0.318,1.734         c0.11,0.642,0.218,1.36,0.298,2.087c0.167,1.454,0.26,2.949,0.268,3.931c-0.723,3.06-0.069-1.586-0.483-0.821         c0,0-0.016,1.696-0.141,3.397c-0.111,1.702-0.348,3.401-0.347,3.401c-1.278,2.53-0.417-3.02-0.015-7.603         c-1.515,2.984-1.599,4.276-1.771,6.56c-0.089,1.134-0.239,2.497-0.734,4.346c-0.502,1.84-1.368,4.179-3.089,7.042         c0,0,0.594-1.438,1.082-2.912c0.495-1.471,0.904-2.962,0.904-2.962c-1.282,1.671-2.274,3.594-3.495,5.813         c-1.238,2.198-2.718,4.706-5.031,7.219c0.663-0.505,3.002-3.039,4.601-4.901c1.59-1.848,2.729-2.83,1.371,0.548         c-1.129,1.72-2.503,3.984-4.45,7.421c-0.734-0.503-2.769,2.707-6.163,6.039l-0.582-1.061         c-1.682,1.868-2.451,2.763-2.982,3.544c-0.545,0.769-0.874,1.402-1.944,2.507c-2.361,1.639-4.004,2.283-5.175,2.587         c-1.183,0.288-1.93,0.204-2.681,0.173c-2.003,0.96-2.655,1.28-2.605,1.409c0.049,0.126,0.784,0.008,1.481-0.098         c0.698-0.099,1.354-0.195,1.245,0.065c-0.115,0.245-0.979,0.901-3.466,1.994c-3.614,1.231-6.71,2.127-10.044,2.943         c-3.336,0.794-6.926,1.51-11.568,1.779c-5.375-0.628,0.965-0.658-0.954-1.077c0,0-1.186,0.189-2.39,0.32         c-1.202,0.14-2.42,0.217-2.42,0.216c-1.159-0.185-0.741-0.414-0.535-0.53c-2.004-0.113-2.139,0.138-2.557,0.353         c-0.415,0.19-1.139,0.429-4.307-0.231c-1.002,0.399-4.15-0.936-7.702-2.983c-3.589-2.026-7.453-4.803-11.032-6.623         c-1.342-1.449,1.176,0.004,0.973-0.726c-2.276-1.409-3.818-2.571-5.009-3.504c-1.189-0.938-2.025-1.658-2.813-2.345         c-1.554-1.401-3.021-2.547-6.144-5.896c0,0-0.937-1.705-1.739-3.459c-0.811-1.752-1.483-3.547-1.483-3.547         c0.889,2.688,0.324,2.598-0.999,1.113c-1.301-1.487-3.172-4.477-4.595-7.48c0.25,2.114,0.59,3.93,0.909,5.117         c0,0-1.217-2.386-2.184-4.898c-0.999-2.5-1.742-5.104-1.742-5.104c-0.084-1.319,0.515-0.322,1.41,1.241         c-0.269-0.681-0.522-1.325-0.721-1.829c-0.196-1.908,0.028-2.404,0.381-2.11c0.361,0.294,0.899,1.365,1.524,2.577         c0.059,1.28,0.169,2.553,0.288,3.803c1.44,2.273,3.059,4.154,3.498,3.415c-0.364-0.559-0.924-1.701-1.417-3.007         c0.378,0.564,0.691,0.894,0.697,0.573c0.003-0.361-0.576-1.265-1.322-2.773c0,0,0.165-0.638,0.329-1.274         c0.179-0.627,0.357-1.254,0.357-1.254l-0.63-0.416c0,0-0.553-3.23-0.666-6.48c-0.072-1.623-0.059-3.243-0.018-4.455         c0.051-1.214,0.115-2.017,0.114-2.017c-0.592-4.607-0.858-9.096-0.199-14.282c0.694-5.149,2.301-11.109,6.458-17.753         c-1.319,3.747,0.851,1.525,1.666,2.339c-1.617,1.372-3.029,3.975-4.2,7.125c-1.183,3.158-2.113,6.834-3.102,10.538         c0.527-1.936,0.931-2.631,1.135-2.729c0.211-0.097,0.244,0.403,0.208,0.913c0,0,0.61-3.333,1.692-6.58         c1.035-3.259,2.531-6.38,2.53-6.38c0.65,0.729,1.998-2.205,4.423-4.818c-1.512,0.563-0.346-1.741,1.946-4.569         c2.266-2.848,5.763-5.979,7.875-7.88c0.328,0.14,0.303,0.53-0.46,1.407c-0.761,0.883-2.271,2.236-4.722,4.583         c3.125-2.148,4.615-4.02,6.229-5.928c1.609-1.866,3.362-3.775,6.956-5.017c-1.485,0.794-2.312,1.19-2.724,1.794         c1.529-1.262,4.542-2.874,7.001-3.771c2.46-0.907,4.28-1.225,3.304-0.613c0,0-0.391,0.143-0.781,0.285         c-0.387,0.15-0.774,0.301-0.774,0.301c2.594-0.954,5.938-1.961,9.567-2.661c3.628-0.712,7.532-1.089,11.17-1.148         c3.644-0.066,6.997,0.157,9.479,0.433c0.306,0.035,0.599,0.069,0.88,0.103c0.134,0.017,0.265,0.033,0.392,0.049         c0.144,0.021,0.285,0.043,0.422,0.063c0.235,0.034,0.643,0.085,0.943,0.108c0.3,0.012,0.577,0.023,0.837,0.008         c1.045-0.04,1.75-0.289,1.98-0.496c0.079,0.086-0.314,0.611-0.974,1.084c-0.653,0.478-1.52,0.88-2.028,0.942         c0,0,0.456,0.011,1.257-0.065c0.814-0.08,2.038-0.285,3.291-0.841c1.258-0.544,2.563-1.471,3.512-2.743         c0.963-1.261,1.533-2.841,1.643-4.357c0.14-1.521-0.215-2.883-0.529-4.076c-0.305-1.218-0.59-2.354-0.834-3.329         c-0.488-1.949-0.814-3.248-0.814-3.248c1.33,1.831,4.496-5.197,5.247,4.463c0.189-2.774,0.41-6.206-0.058-12.054         c-0.189,1.893-1.923,4.717-2.044,2.132c1.48-7.099,0.792-4.929,2.054-13.677c-0.285,2.835-2.37-0.315-2.303-4.798         c0.312,0.7,2.058-0.373,2.275,1.266l-2.047-11.157c0.369,2.785,1.735,0.492,2.313-2.004c-0.4,1.158,0.037-9.645-0.166-12.619         l-0.474,4.729c0.31-12.596-2.878-12.442-2.771-24.938c0.423,1.512,2.602,3.736,2.859-2.62         c-1.048-2.912-5.041-12.896-5.849-23.953l0.599-2.12l-0.683-8.483c1.578,5.282,4.896,20.105,6.188,28.2         c0.475-4.713,0.706-1.312,0.652-8.372c0.562-2.493,0.852,3.847,0.885,5.925l0.363-16.436         c-1.225,0.731-1.228-12.569-2.247-11.942l1.269,17.852c-1.222,0.723-3.474-10.322-3.257-21.968         c0.487-2.962,2.178,2.216,2.586,1.974c-0.421-1.512-0.804-11.053-0.506-12.123l0.655,4.939         c0.46-6.482-1.622-10.58-0.454-18.37c0.078-2.689,1.576-8.029,0.851-8.495c-1.396,4.386-5.714,5.244-6.764,2.32         c0.094-0.943,1.335-14.12,2.024-17.189c1.095-4.428,2.609,6.648,3.549,2.877c-0.334-0.162-0.746-2.608-0.879-3.628         c0.286-2.824,1.036,1.169,0.885-4.967c-1.241-1.023,0.105-12.48-1.048-2.901c-0.177-3-0.114-4.595-0.013-6.321         c0.046-0.863,0.095-1.759,0.155-2.878c0.015-0.561,0.032-1.177,0.051-1.873c0.003-0.348,0.007-0.717,0.011-1.108         c0-0.396,0.011-0.648,0.04-1.007c-0.23,0.409-0.505,0.331-0.751-0.195c-0.237-0.52-0.417-1.511-0.207-2.77         c0.203-1.249,0.829-2.753,1.94-4.017c1.089-1.275,2.646-2.272,4.212-2.72c-0.281,0.38,1.18,0.467,1.821,0.646         c12.287,0.063,18.905,0.662,30.374,0.662c1.058,0.3,6.594,0.664,4.236,1.198c1.65-0.22,3.166-0.641,6.706-0.67         c6.848,1.072-7.891,0.167-2.67,1.456c0.446-0.721,9.152-0.995,14.192-1.445c-1.55-1.113-11.646-0.213-16.693,0.236         c-0.023-1.535,8.764-3.144,20.756-3.854c9.529-0.382,4.132,0.992,5.786,0.774c17.901,0.269,15.251-2.682,30.116-1.574         c5.898,0.979,0.266,1.947,1.574,2.653c-7.765,0.371-11.919-0.621-17.183-0.582l6.479,0.463         c-2.471,0.325-7.652,0.572-10.477,0.288c4.944,0.879,30.243,0.169,44.055,0.981c2.455-0.329,6.69-0.668,4.687-1.061         l-4.371,0.136c-4.017-0.789,8.226-1.091,2.693-1.459c5.863-0.555,12.435-1.427,20.687-0.981l1.551,1.116         c-0.178-0.326-5.395-0.665-7.714-0.325c3.439-0.495,12.653,1.511,16.424,0.049l-5.786-0.773         c5.886-0.561,13.161-1.746,20.475-1.394c-3.328-1.102-1.686,0.126-6.883-1.164c4.505,1.604-18.709-0.067-11.473,1.619         c-5.332-1.497-9.229-0.635-16.2-1.911c0.215,0.368,2.47,0.704-3.671,0.522c-0.276,0.107-0.931,0.244-1.346,0.324         c-0.188-0.012-0.254-0.017-0.416-0.027c0.123,0.016,0.216,0.027,0.339,0.043c-0.266,0.055-0.289,0.066,0.127,0.015         c1.462,0.161,2.646,0.354,3.128,0.56c-3.047,0.845-12.812,0.819-16.112,1.256c-3.644-0.175,1.523-0.422-0.466-0.815         l-4.932,0.654c-0.489-0.818-9.68-1.358-1.097-1.837l-7.726-0.037c-4.547-0.458-10.803-0.641-14.662-0.297         c-3.643-0.177-9.202,0.905-6.028,0.265l-12.114,0.506l-0.112-0.205c-11.953-0.103-24.606,1.354-38.272-0.122         c-4.024,0.206-8.183,0.458-14.916,0.226l-1.312-0.707c-2.583,0.124-6.462-0.053-9.973-0.169         c-0.219-0.007-0.438-0.014-0.653-0.021l-0.323-0.01l-0.411-0.004c-0.648-0.004-1.285,0.043-1.899,0.121         c-1.23,0.154-2.363,0.473-3.337,0.858c-1.958,0.774-3.248,1.819-3.784,2.473c-0.969,0.456-2.142,1.28-3.266,2.551         c-1.12,1.267-2.179,3-2.825,5.114c-0.322,1.054-0.541,2.197-0.618,3.386c-0.011,0.284-0.021,0.571-0.032,0.859l-0.01,0.571         c-0.004,0.383-0.008,0.772-0.013,1.166c-0.012,1.575-0.001,3.224,0.022,4.901c0.092,6.708,0.379,13.855,0.211,18.399         l0.923,0.342c-0.052,6.255,0.209,12.253,0.58,20.017l0.816-0.477c0.67,6.694-0.58,17.208-0.497,27.796         c-0.312-0.72-0.23-3.405-0.042-5.306c-1.843,12.65,1.341,26.688-0.002,38.161c0.297,2.858,0.196,4.928-0.009,6.933         c-0.002-0.266-0.017-0.504-0.042-0.708c-0.002,0.292-0.006,0.727-0.011,1.173c-0.14,1.262-0.303,2.563-0.434,3.97         c0.198-1.196,0.362-2.343,0.438-3.339c0.017,2.205,0.118,5.548,0.322,8.826l-0.876,1.396         c0.009,0.266,0.016,0.481,0.025,0.758c-0.324,3.216,0.415,2.585,1.074,0.87c0.144,1.65,0.317,3.163,0.528,4.336         c-1.414,2.612,0.477,8.599-1.032,12.165c0.736,2.208,0.554,16.478,2.102,18.225c-0.201,0.111-0.297,1.077-0.311-0.693         c-0.176,3.655-0.352,7.307,0.083,10.584l-1.113,1.551l1.498,7.979c-0.68,4.848-1.074,6.856-1.932,2.043         c0.33,2.903,0.526,4.955,0.654,6.524c0.061,0.558,0.045,1.028-0.003,1.419c-0.046,0.378-0.121,0.684-0.229,0.992         c-0.226,0.601-0.528,1.169-1.153,1.78c-0.644,0.591-1.584,1.286-3.504,1.367c0,0,0.121-0.161,0.229-0.334         c0.105-0.17,0.209-0.34,0.209-0.34c-0.314-0.021-0.645-0.066-0.958-0.106c-0.457-0.094-1.06-0.222-1.628-0.3         c-1.137-0.164-2.296-0.255-3.406-0.324c-2.218-0.138-4.218-0.171-5.308-0.518c-2.022-0.434-5.625-0.704-10.181-0.279         c-4.547,0.411-10.023,1.594-15.564,3.789c-5.545,2.179-11.111,5.389-15.99,9.242c-4.898,3.838-9.092,8.293-12.407,12.555         c2.071-1.083,0.395,0.762-1.489,3.249c-1.895,2.483-3.844,5.76-3.255,6.489c-0.971,0.911-2.4,3.612-1.426,0.201         c-2.007,5.179-3.262,9.154-4.112,12.808c-0.817,3.649-1.16,7.011-0.58,10.829c-0.542,1.258-0.654-2.394-0.987-1.279         c0.048,0.907,0.356,3.544,0.102,4.706c-0.258,1.146-0.495-1.619-0.651-3.41c-0.048,5.76,0.86,8.875,1.661,10.571         c0.839,1.701,1.676,2.032,2.464,2.291c0.182,2.793,0.589,4.873,1.201,6.673c0.619,1.799,1.444,3.328,2.642,4.99         c0.144,0.979,0.452,2.257,0.355,2.521c-0.082,0.257-0.699-0.453-2.027-3.64c0.329,0.912,0.997,2.767,2.012,4.959         c1.006,2.195,2.36,4.727,3.877,7.028c2.996,4.646,6.655,8.225,7.196,7.956c0.31,0.537,1.233,1.524,2.22,2.408         c0.982,0.89,2.018,1.681,2.449,1.954c3.278,2.809,5.24,4.126,7.195,5.395c1.975,1.234,3.974,2.434,7.878,4.102         c0,0-0.518-0.282-1.036-0.564c-0.511-0.293-1.022-0.585-1.022-0.585c1.808,0.09,3.411,0.708,5.418,1.539         c2.001,0.819,4.426,1.854,7.753,2.508l-0.221,0.1c3.746,1.089,6.125,1.395,7.718,1.574c1.6,0.161,2.442,0.137,3.272,0.116         c0.831-0.022,1.652-0.043,3.229-0.031c1.576-0.009,3.912,0.086,7.792-0.182l-0.95-0.748c0.588-1.028,3.914-1.161,8.175-1.918         c4.246-0.717,9.447-2.225,13.171-4.76c0,0-0.763,0.288-1.533,0.547c-0.767,0.268-1.542,0.503-1.542,0.502         c2.026-1.345,5.259-2.41,8.511-3.789c3.253-1.341,6.504-3.003,8.423-4.685c0.914-0.653-1.077,1.409-2.19,2.505         c2.709-1.991,3.989-3.27,4.609-3.986c0.612-0.73,0.543-0.943,0.38-1.1c-0.166-0.157-0.433-0.268-0.256-0.8         c0.17-0.538,0.798-1.48,2.276-3.421c0.804-0.512,0.751,0.183,1.018,0.376c0.252,0.181,0.912-0.098,2.899-2.827         c1.166-1.232,3.494-5.627,5.315-10.902c0.932-2.63,1.741-5.473,2.45-8.196c0.697-2.729,1.3-5.341,1.928-7.542         c-0.391,0.953-0.792,1.886-1.049,2.012c-0.256,0.126-0.308-0.543-0.161-2.794c0.199-1.712,0.497-3.715,0.728-5.88         c0.118-1.068,0.212-2.234,0.293-3.314c0.077-1.081,0.155-2.176,0.233-3.266c0.283-4.359,0.4-8.64-0.349-11.605         c0.13-0.835,0.254-1.15,0.373-1.185c-0.387-5.021-0.643-16.316-1.455-19.341c3.016-4.64-1.466-31.212,1.314-31.101         l-0.149-15.442l0.284,0.403c0.184-9.872-0.482-13.361-1.15-16.831c0.189-2.282,0.449-0.616,0.595-0.428         c0.561-14.423,0.442-15.858-0.942-27.95l0.902-1.258c-0.524-3.278,1.415-20.852,0.362-34.998         c0.102,0.139,0.277,0.431,0.405,1.554c-0.132-1.989-0.193-4.077-0.203-6.218c0-0.535,0.001-1.074,0.001-1.615l0.007-0.814         c0.003-0.263,0.005-0.585,0.017-0.718c0.031-0.705,0.201-1.394,0.474-2.037c0.55-1.288,1.58-2.361,2.77-2.976         c0.595-0.307,1.22-0.514,1.846-0.605c0.313-0.049,0.624-0.074,0.934-0.068c0.429,0.017,0.854,0.034,1.276,0.051         c8.265,0.347,15.271,0.417,18.187-1.226l10.503-0.81c-13.589-0.256,2.023-1.426-3.566-1.972         c5.344-0.193,13.815,0.99,7.248,1.16l-1.027-0.165c-2.412,1.712,16.886,0.607,16.521,1.773         c26.738-0.084,52.799,0.864,77.845,0.937l-2.886-1.331l8.737,0.077c2.293,0.31,3.077,1.041-3.155,0.986         c3.278,0.755,10.453-0.631,10.63-0.921c0.763,0.042,1.411,0.077,1.959,0.106c0.246,0.021,0.566,0.034,0.863,0.044         c0.289,0.001,0.548,0.003,0.778,0.005c0.923-0.024,1.393-0.057,1.529,0.002c0.278,0.102-0.795,0.593-2.333,0.813         c-1.172,0.142-2.614,0.318-3.523,0.428c-0.873,0.108-1.232,0.177-0.297,0.185c0,0,1.271-0.025,2.542-0.05         c0.34-0.008,0.681-0.016,1-0.023c0.422-0.009,0.816-0.045,1.152-0.079c0.674-0.079,1.116-0.172,1.116-0.172         s-0.407,0.038-0.814,0.044c-0.407,0.015-0.812-0.003-0.812-0.004c1.436-0.231,2.487-0.628,3.393-1.063         c0.904-0.44,1.673-0.922,2.502-1.529c0.821-0.614,1.715-1.353,2.706-2.476c0.972-1.126,2.096-2.648,2.874-4.963         c0.524-1.452,0.693-2.428,0.831-3.05c0.129-0.612,0.218-0.948,0.31-1.039c0.178-0.249,0.33-0.138,0.355-1.071         c0.094,0.012,0.139-0.62,0.038-2.862l0.114-11.007l-1.052,4.401c-0.518-4.878,0.056-10.349-1.136-5.271         c0.229-0.932,0.412-2.272,0.557-3.914c0.072-0.82,0.136-1.716,0.19-2.674c0.024-0.479,0.05-0.973,0.075-1.481         c0.012-0.23,0.022-0.464,0.034-0.701l0.03-0.091c0.157-0.493,0.2-1.076,0.203-1.647c0.007-1.144-0.146-2.247,0.14-2.511         c-0.767-0.789-0.753-1.568-0.66-2.533c-0.22,0.24-1.4,0.383-1.256-0.449c2.438,0.304,1.058-1.524,2.813-2.197         c-1.163,0.601-0.287-2.366-1.939-1.423c0.197-0.694,0.913-0.042,1.487-0.569c-0.945-1.653,0.613-3.643,0.295-5.686         c-0.32-0.032-0.81,0.31-1.286-0.128l1.6-1.079c-0.156-0.403-1.847-0.371-0.735-1.108c-0.27,0.104-0.676,0.259-0.778-0.011         c1.56-4.002-1.277-8.179,1.653-12.244c-0.62,0.551-0.682,0.184-0.705-0.237c-0.148,0.273-0.79-0.006-1.225,0.047l1.205-1.702         c-1.204-0.31-0.082-1.824-1.232-2.002l0.207,0.539c-1.358-0.717-3.02,1.002-4.764,0.898c1.545,0.802-2.287,2.116-0.076,3.432         c-0.355,0.291-0.562-0.248-0.966-0.092c0.747,0.333,0.903,0.737,0.568,1.484l-0.186-0.084         c0.183,2.098-0.555,2.998-1.045,5.355l0.862-0.175c-0.115,0.507-0.386,0.613-0.602,0.851         c1.307,0.581,0.073-1.423,1.515-0.893c-1.754,0.672-0.026,3.572-2.02,4.026c-0.011,0.779,0.998-0.229,0.986,0.55         l-0.539,0.207l0.695,0.197c-0.115,0.511-0.79,0.769-1.247,0.788c0.055-0.124-0.128-0.353-0.167-0.485         c-0.635,0.663,0.217,1.868,0.01,2.096l0.333-0.749c0.505,2.126-0.204,4.724,0.893,6.778l0.407-0.156         c0.753,1.569-0.446,1.256-0.099,2.979l-0.097-0.063c0.405,0.345,0.609,0.805,0.563,1.277         c-0.477-0.435-0.926,0.818-1.454,0.248c0.809,1.702,0.636,0.842,2.147,1.965l-0.675,0.259         c0.61,0.383,0.933,0.415,1.106,1.275c-0.579-0.706-1.028,0.549-1.794-0.242c-0.737,0.903-0.365,1.573-0.078,2.121         c0.144,0.274,0.266,0.518,0.218,0.744c-0.024,0.113-0.092,0.223-0.22,0.33c-0.032,0.026-0.068,0.053-0.108,0.08l-0.063,0.039         l-0.07,0.338c-0.097,0.453-0.212,0.903-0.347,1.351c0.467,1.795,0.766,1.847,0.956,0.978         c0.096-0.435,0.165-1.099,0.214-1.891c0.012-0.198,0.022-0.404,0.034-0.616l0.008-0.16l0.007-0.019l0.013-0.038         c0.016-0.052,0.028-0.105,0.038-0.16c0.075-0.437-0.032-0.918,0.168-0.686c0.305-0.194,0.654-0.023,0.903,0.267         c0.125,0.146,0.225,0.32,0.281,0.495c0.014,0.043,0.025,0.087,0.034,0.13c0.006,0.343,0.011,0.682,0.017,1.012         c0.005,0.717-0.004,1.399-0.027,2.012c-0.042,4.994-2.389,8.491-2.354,21.052c0.008-1.25-0.133-1.335-0.125-2.582         c-0.06,0.588-0.094,1.172-0.11,1.757l-0.012,0.877l0.004,0.766c0.004,0.729-0.069,1.474-0.31,2.214         c-0.44,1.459-1.701,2.988-3.539,3.33c-0.354,0.449-0.88,0.756-1.444,0.897c-0.281,0.077-0.572,0.112-0.858,0.127         c-0.413,0.007-0.816,0.015-1.203,0.021c-1.584,0.023-2.88,0.084-3.346,0.805c0,0,0.72-0.021,1.8-0.052         c0.54-0.016,1.171-0.034,1.846-0.053c0.314-0.012,0.738-0.015,0.989-0.035c0.264-0.015,0.53-0.042,0.793-0.09         c1.055-0.17,2.036-0.605,2.697-1.036c0.667-0.425,1.04-0.8,1.04-0.8c-0.843,0.841-1.841,1.555-3.048,2.024         c-0.301,0.117-0.615,0.218-0.942,0.297c-0.34,0.083-0.622,0.136-1.096,0.188c-0.867,0.096-1.758,0.194-2.681,0.295         c-3.692,0.366-7.914,0.583-13.294,0.175c0.839-0.291,4.039-0.673,6.24-0.886c-3.147-0.425-6.06,0.282-9.322-0.155         c0.466-0.721,3.967-0.799,8.226-0.835c2.13-0.018,4.449-0.024,6.674-0.096c1.112-0.036,2.2-0.087,3.229-0.165         c0.257-0.021,0.511-0.042,0.76-0.063l0.371-0.035c0.131-0.012,0.244-0.025,0.303-0.042c0.3-0.05,0.574-0.15,0.824-0.25         c-0.263-0.042-0.572-0.047-0.92-0.062c-0.579-0.016-1.232-0.007-1.903,0.015c-1.345,0.045-2.784,0.146-4.008,0.217         c-2.447,0.142-4.033,0.165-2.275-0.616c-5.056,1.986-12.377-0.25-20.883,1.266l0.562-0.864         c-1.347,0.136-4.136,0.543-6.613,0.522l4.486-1.12c-6.887,0.955-13.277-0.835-19.883-0.315         c13.831-0.027,3.104,1.04,8.952,1.671c-17.059,1.156-9.811-2.259-28.908-1.845c2.586-0.122,9.707,0.519,5.663,0.919         c-3.636-0.178-8.437-0.51-10.668-0.962c-12.653,0.179,1.942,0.888-3.443,1.418c-4.309-1.052-6.213,0.428-11.761,0.766         l-0.039-0.878c-14.419-0.563-3.824,1.83-16.805,1.149l5.486-1.218l-6.767,0.314l1.396-0.999         c-7.364,0.74-9.657,0.549-16.87,0.269c1.677,0.619-0.943,1.593-7.329,1.621c-4.355-0.522,2.439-0.834-6.614-0.709         c2.043-0.549,4.282-1.239,8.222-0.43c0.404-0.287,2.016-0.551,2.432-0.834c-2.345-0.3-5.292-0.333-8.063-0.292         c-2.854,0.071-5.528,0.137-7.216,0.179c0.228-0.001,0.46-0.002,0.696-0.003l0.494,0.015c0.331,0.014,0.662,0.027,0.978,0.04         c0.631,0.031,1.202,0.074,1.588,0.137c0,0-0.82,0.076-2.051,0.19c-0.308,0.028-0.641,0.06-0.993,0.092         c-0.454,0.033-1.022,0.09-1.554,0.182c-1.086,0.187-2.217,0.519-3.277,0.983c-2.135,0.925-3.905,2.414-4.973,3.698         c-0.545,0.636-0.934,1.213-1.188,1.625c-0.258,0.41-0.384,0.656-0.384,0.656c-0.868,1.094-1.024,1.208-0.935,0.694         c0.106-0.5,0.578-1.56,1.219-2.534c-1.159,1.5-1.825,3-2.278,4.74c-0.221,0.873-0.378,1.816-0.443,2.873         c-0.009,0.264-0.018,0.536-0.027,0.815c0.004,0.253,0.002,0.624,0.014,0.802c0.014,0.43,0.027,0.886,0.042,1.375         c-0.356-0.506-0.719-0.698-1.034-1.456c-0.149-0.485-0.297-1.323-0.236-2.489c0.069-1.173,0.321-2.77,1.233-4.72         c0,0-0.139,0.27-0.333,0.764c-0.204,0.489-0.458,1.206-0.678,2.084c-0.219,0.878-0.39,1.925-0.433,3.045         c-0.012,0.28-0.018,0.564-0.01,0.851l0.01,0.418l0.018,0.287c0.024,0.385,0.049,0.775,0.074,1.166         c0.198,3.126,0.396,6.252,0.396,6.252c-0.31,0.835-0.852,6.417-1.115,4.793c-0.419,6.933,1.385,17.005,0.832,26.196         c0.138,0.477,0.271,1.435,0.373,3.39c-0.161,8.637-1.037,16.289-0.059,26.526l-1.279,5.809         c0.291,8.018,1.612-7.863,2.094,5.486c0.409,9.453-1.091,3.528-1.447,6.845c0.646,4.701,1.958,12.873,0.916,21.556         C227.514,290.648,227.703,288.395,227.608,285.709z M221.974,381.666c0.708-1.664,1.59-5.108,2.498-6.145         C224.677,377.771,223.628,379.11,221.974,381.666z M118.133,360.396c0.386,1.354,0.446,3.469,0.533,5.905         C118.29,364.588,118.059,362.602,118.133,360.396z M298.875,89.85c-0.081,0.014-0.139,0.024-0.204,0.043         C294.396,89.55,295.912,89.685,298.875,89.85z M307.75,90.231c0.893-0.123,0.831-0.245,0.454-0.367         c-0.619,0.222-2.612,0.237-4.882,0.175C303.953,90.269,305.1,90.428,307.75,90.231z M397.865,163.008l-0.229,1.728         C397.384,160.834,397.612,161.927,397.865,163.008z" style="fill:#202020;"/><path d="M122.769,376.028c0.042,0.534-0.06,0.729-0.167,0.9         C123.018,377.54,123.158,377.491,122.769,376.028z" style="fill:#202020;"/><path d="M227.146,224.211l0.011-0.3c-0.053-0.166-0.106-0.254-0.159-0.304L227.146,224.211z" style="fill:#202020;"/><path d="M199.906,124.45c-0.127,1.827-0.287,2.847-0.454,3.524         C199.668,128.074,199.849,127.243,199.906,124.45z" style="fill:#202020;"/><path d="M354.783,88.739l-5.687,0.228c2.751-0.043,3.731,0.148,5.12,0.288         C354.09,89.05,353.006,88.753,354.783,88.739z" style="fill:#202020;"/><path d="M375.859,94.172c0.096-0.107,0.203-0.012,0.298-0.121l-0.026-0.408         C375.722,93.67,375.437,93.999,375.859,94.172z" style="fill:#202020;"/><path d="M360.046,91.656c0.45,0.739,4.017,0.488,7.998,0.352c-0.238,0.002-0.465,0.009-0.704,0         C368.514,90.973,364.271,91.315,360.046,91.656z" style="fill:#202020;"/><path d="M368.968,91.982c0.613-0.012,1.233-0.023,1.851-0.035c0.309,0,0.616,0,0.922,0l0.431,0.006         l0.053,0.011c0.014-0.104,0.009-0.161-0.009-0.187c-0.009-0.013-0.021-0.018-0.035-0.017         c-0.106,0.005-0.232,0.011-0.376,0.019C371.099,91.821,370.063,91.929,368.968,91.982z" style="fill:#202020;"/><path d="M319.008,89.741c1.889,0.19,1.185-0.944,2.254-0.644         C323.37,88.157,308.67,90.235,319.008,89.741z" style="fill:#202020;"/><polygon points="363.27,94.089 361.843,93.178 359.611,93.913        " style="fill:#202020;"/><path d="M331.826,93.42l6.363,0.252c-0.096-0.153,0.712-0.243,1.705-0.311         C335.974,93.331,331.677,93.15,331.826,93.42z" style="fill:#202020;"/><path d="M339.895,93.361c2.042,0.019,3.985-0.001,5.12-0.151         C343.91,93.22,341.533,93.25,339.895,93.361z" style="fill:#202020;"/><polygon points="354.571,94.363 352.689,94.173 348.196,94.106        " style="fill:#202020;"/><path d="M263.423,93.244l-6.944,0.261c-0.708,0.313,1.185,0.504,3.771,0.379         C261.911,93.667,264.488,93.546,263.423,93.244z" style="fill:#202020;"/><path d="M284.425,95.741c-1.878-0.189-2.005-0.393-3.063-0.692l-0.212,1.13L284.425,95.741z" style="fill:#202020;"/><path d="M264.173,96.005c-0.692,0.313-10.08,0.9-1.277,0.829         C263.6,96.523,270.556,96.263,264.173,96.005z" style="fill:#202020;"/><polygon points="196.806,135.188 196.792,133.422 194.938,133.676        " style="fill:#202020;"/><path d="M201.241,227.417c0.444-8.229-1.144-1.955-0.588-9.391c-0.439-1.931-0.453,6.079-0.832,4.097         C200.283,227.09,200.021,229.699,201.241,227.417z" style="fill:#202020;"/><path d="M199.821,222.124c-0.073-0.796-0.162-1.639-0.282-2.535         C199.655,221.027,199.744,221.704,199.821,222.124z" style="fill:#202020;"/><polygon points="398.807,105.778 399.192,105.167 398.57,105.562        " style="fill:#202020;"/><path d="M397.432,104.604l1.182-0.144l-1.069-0.367C397.597,104.232,397.698,104.5,397.432,104.604z" style="fill:#202020;"/><path d="M212.397,391.274l-0.035,0.456c0.72-0.336,1.501-1.142,2.929-2.866         c0,0-0.701,0.637-1.432,1.232C213.14,390.704,212.397,391.274,212.397,391.274z" style="fill:#202020;"/><polygon points="226.68,327.524 226.655,328.76 227.724,326.451        " style="fill:#202020;"/><path d="M225.317,267.288c-0.044,2.459,0.194,5.348,0.148,7.817         C225.273,269.747,226.649,266.623,225.317,267.288z" style="fill:#202020;"/></g></g></g></g></g></g></g><g id="Layer_1"/></svg>